<?xml version="1.0" encoding="utf-8"?>
<!-- Generator: Adobe Illustrator 16.0.0, SVG Export Plug-In . SVG Version: 6.00 Build 0)  -->
<!DOCTYPE svg PUBLIC "-//W3C//DTD SVG 1.1//EN" "http://www.w3.org/Graphics/SVG/1.1/DTD/svg11.dtd">
<svg version="1.1" xmlns="http://www.w3.org/2000/svg" xmlns:xlink="http://www.w3.org/1999/xlink" x="0px" y="0px"
	 width="799.542px" height="127.213px" viewBox="0 0 799.542 127.213" enable-background="new 0 0 799.542 127.213"
	 xml:space="preserve">

	<g id="headband">
		<path id="band4_1_" opacity="0.5" fill="#B9CC75" d="M0.429,0.111c0,26.994,52.712,101.219,136.248,117.752
			c70.665,13.988,163.388-11.529,264.921-11.529c117.114,0,222.508-6.287,295.848-24.287C762.852,65.993,802.765,23.6,802.765,0.111"
			/>
		<path id="band3_1_" opacity="0.5" fill="#B9CC75" d="M0.429,0.111c0,26.994,52.712,77.219,136.248,93.752
			c70.665,13.988,163.388,3.471,264.921,3.471c117.114,0,222.508-6.287,295.848-24.287C762.852,56.993,802.765,23.6,802.765,0.111"/>
		<path id="band2_1_" opacity="0.5" fill="#B9CC75" d="M0.429,0.111c0,26.994,52.712,58.218,136.248,74.752
			c70.665,13.988,163.388,15.47,264.921,15.47c117.114,0,222.508-8.286,295.848-26.287C762.852,47.993,802.765,23.6,802.765,0.111"/>
		<path id="band1_2_" fill="#B9CC75" d="M0.429,0.111c0,21.741,52.712,41.252,136.248,54.569
			c70.665,11.265,163.388,18.098,264.921,18.098c117.114,0,222.508-9.09,295.848-23.588C762.852,36.26,802.765,19.03,802.765,0.111"
			/>
	</g>

</svg>
