<?xml version="1.0" encoding="utf-8"?>
<!-- Generator: Adobe Illustrator 16.0.0, SVG Export Plug-In . SVG Version: 6.00 Build 0)  -->
<!DOCTYPE svg PUBLIC "-//W3C//DTD SVG 1.1//EN" "http://www.w3.org/Graphics/SVG/1.1/DTD/svg11.dtd">
<svg version="1.1" xmlns="http://www.w3.org/2000/svg" xmlns:xlink="http://www.w3.org/1999/xlink" x="0px" y="0px"
	 width="393.584px" height="432px" viewBox="0 0 393.584 432" enable-background="new 0 0 393.584 432" xml:space="preserve">

		<g id="round-violet">
			<path opacity="0.5" fill="#A576B3" d="M-0.417,29.65c13.614-6.137,35.987-10.908,50.962-14.106C70.514,11.279,91.551,6,113.276,6
				c53.972,0,110.69,11.063,150.348,34.703C319.25,73.863,387.08,154.867,387.08,213.334c0,100.147-121.125,211.333-250.804,211.333
				c-44.824,0-97.463-11.731-136.688-31.22"/>
			<path opacity="0.5" fill="#A576B3" d="M-0.416,46.29c12.118-4.967,32.809-8.938,45.961-11.747C65.514,30.279,86.551,25,108.276,25
				c53.972,0,106.69,7.063,146.348,30.703C310.25,88.863,369.08,161.867,369.08,220.334c0,100.147-117.125,192.333-246.804,192.333
				c-43.178,0-85.187-9.555-122.017-25.998"/>
			<path opacity="0.5" fill="#A576B3" d="M-0.442,64.376c13.621-5.313,31.004-9.632,45.987-12.833C65.514,47.279,86.551,45,108.276,45
				c53.972,0,103.69,14.063,143.348,37.703c55.626,33.16,91.456,85.164,91.456,143.631c0,100.147-105.125,181.333-234.804,181.333
				c-39.052,0-75.878-7.363-108.276-20.39"/>
		</g>

</svg>
